# xmcd
#
# Track frame offsets:
#	150
#	22092
#	39047
#	57899
#	79153
#	97025
#	120046
#	138814
#	158350
#	178038
#	196012
#	211574
#	224977
#	238735
#	254544
#	270155
#	288008
#	306294
#
# Disc length: 4301 seconds
#
# Revision: 0
# Processed by: cddbd v1.4PL0 Copyright (c) Steve Scherf et al.
# Submitted via: EasyCDDAExtractor 4.6.9.1
#
DISCID=e910cb12
DTITLE=Hari Mata Hari - Balade
DYEAR=1900
DGENRE=
TTITLE0=Ja nemam snage da te volim
TTITLE1=Gdje si ti sada ljubavi
TTITLE2=Sedam rada
TTITLE3=Strah me da te volim
TTITLE4=Volio bih da te ne volim
TTITLE5=Ti rodjena si da te zavolim
TTITLE6=Ja te volim najvise na sijetu
TTITLE7=Ako padate snegovi beli
TTITLE8=Emina
TTITLE9=Javi se
TTITLE10=Barbara
TTITLE11=Ostani zbogom ljubavi
TTITLE12=Starac i more
TTITLE13=Znam pricu o sreci
TTITLE14=U tvojoj kosi
TTITLE15=Znam da te gubim
TTITLE16=Sta je bilo bilo je
TTITLE17=Nek nebo nam sudi
EXTD=
EXTT0=
EXTT1=
EXTT2=
EXTT3=
EXTT4=
EXTT5=
EXTT6=
EXTT7=
EXTT8=
EXTT9=
EXTT10=
EXTT11=
EXTT12=
EXTT13=
EXTT14=
EXTT15=
EXTT16=
EXTT17=
PLAYORDER=
